# xmcd CD database file
#
# Track frame offsets:
#	150
#	20821
#	45889
#	76181
#	92010
#	111714
#	133871
#	163408
#	188591
#	223809
#	240907
#	268630
#	282368
#	319873
#
# Disc length: 4580 seconds
#
# Revision: 0
# Processed by: cddbd v1.5.2PL0 Copyright (c) Steve Scherf et al.
# Submitted via: CDex 1.81
#
DISCID=c811e20e
DTITLE=Hector Lavoe - Grandes Exitos CD 2
DYEAR=2008
DGENRE=Salsa
TTITLE0=El Cantante
TTITLE1=La Murga
TTITLE2=Periodico de ayer
TTITLE3=Che Che Cole
TTITLE4=El Todopoderoso
TTITLE5=Te conosco Bacalao
TTITLE6=Siento
TTITLE7=Barrunto
TTITLE8=Songoro Cosongo
TTITLE9=Ah Ah O No
TTITLE10=Aguanile
TTITLE11=La Banda
TTITLE12=Timbalero
TTITLE13=Esta Navidad
EXTD=YEAR: 2008
EXTT0=
EXTT1=
EXTT2=
EXTT3=
EXTT4=
EXTT5=
EXTT6=
EXTT7=
EXTT8=
EXTT9=
EXTT10=
EXTT11=
EXTT12=
EXTT13=
PLAYORDER=
